<mxfile host="app.diagrams.net" modified="2023-10-18T10:11:34.867Z" agent="Mozilla/5.0 (X11; Linux x86_64; rv:109.0) Gecko/20100101 Firefox/118.0" etag="6qmUUUgf8UYibVyz-zLI" version="22.0.4" type="github">
  <diagram name="Page-1" id="XdmYUDCEcG75TGYkLl9f">
    <mxGraphModel dx="1434" dy="737" grid="1" gridSize="10" guides="1" tooltips="1" connect="1" arrows="1" fold="1" page="1" pageScale="1" pageWidth="827" pageHeight="1169" math="0" shadow="0">
      <root>
        <mxCell id="0" />
        <mxCell id="1" parent="0" />
        <mxCell id="ZhVG3TgMVwb6304Ly7we-3" style="rounded=0;orthogonalLoop=1;jettySize=auto;html=1;endArrow=none;endFill=0;" edge="1" parent="1" source="ZhVG3TgMVwb6304Ly7we-4" target="ZhVG3TgMVwb6304Ly7we-12">
          <mxGeometry relative="1" as="geometry" />
        </mxCell>
        <mxCell id="ZhVG3TgMVwb6304Ly7we-4" value="Agent" style="shape=umlActor;verticalLabelPosition=bottom;verticalAlign=top;html=1;outlineConnect=0;" vertex="1" parent="1">
          <mxGeometry x="80" y="150" width="30" height="60" as="geometry" />
        </mxCell>
        <mxCell id="ZhVG3TgMVwb6304Ly7we-5" value="" style="swimlane;startSize=0;" vertex="1" parent="1">
          <mxGeometry x="260" y="20" width="430" height="580" as="geometry">
            <mxRectangle x="310" y="180" width="50" height="40" as="alternateBounds" />
          </mxGeometry>
        </mxCell>
        <mxCell id="ZhVG3TgMVwb6304Ly7we-6" value="&lt;div&gt;CommonUseCase: DiscoverySystem&lt;/div&gt;" style="text;html=1;align=center;verticalAlign=middle;resizable=0;points=[];autosize=1;strokeColor=none;fillColor=none;" vertex="1" parent="ZhVG3TgMVwb6304Ly7we-5">
          <mxGeometry x="175" width="220" height="30" as="geometry" />
        </mxCell>
        <mxCell id="ZhVG3TgMVwb6304Ly7we-12" value="Signaler la connexion des autres agents" style="ellipse;whiteSpace=wrap;html=1;" vertex="1" parent="ZhVG3TgMVwb6304Ly7we-5">
          <mxGeometry x="140" y="120" width="120" height="80" as="geometry" />
        </mxCell>
        <mxCell id="ZhVG3TgMVwb6304Ly7we-13" value="Connexion au réseau" style="ellipse;whiteSpace=wrap;html=1;" vertex="1" parent="ZhVG3TgMVwb6304Ly7we-5">
          <mxGeometry x="140" y="30" width="120" height="80" as="geometry" />
        </mxCell>
        <mxCell id="ZhVG3TgMVwb6304Ly7we-19" value="&lt;div&gt;Changer de pseudonyme unique&lt;br&gt;&lt;/div&gt;" style="ellipse;whiteSpace=wrap;html=1;" vertex="1" parent="ZhVG3TgMVwb6304Ly7we-5">
          <mxGeometry x="140" y="300" width="120" height="80" as="geometry" />
        </mxCell>
        <mxCell id="ZhVG3TgMVwb6304Ly7we-30" value="&lt;div&gt;Signaler un changement de pseudonyme&lt;br&gt;&lt;/div&gt;" style="ellipse;whiteSpace=wrap;html=1;" vertex="1" parent="ZhVG3TgMVwb6304Ly7we-5">
          <mxGeometry x="140" y="210" width="120" height="80" as="geometry" />
        </mxCell>
        <mxCell id="ZhVG3TgMVwb6304Ly7we-20" value="Réseau" style="shape=umlActor;verticalLabelPosition=bottom;verticalAlign=top;html=1;outlineConnect=0;" vertex="1" parent="1">
          <mxGeometry x="760" y="160" width="30" height="60" as="geometry" />
        </mxCell>
        <mxCell id="ZhVG3TgMVwb6304Ly7we-21" style="rounded=0;orthogonalLoop=1;jettySize=auto;html=1;endArrow=none;endFill=0;" edge="1" parent="1" source="ZhVG3TgMVwb6304Ly7we-12" target="ZhVG3TgMVwb6304Ly7we-20">
          <mxGeometry relative="1" as="geometry" />
        </mxCell>
        <mxCell id="ZhVG3TgMVwb6304Ly7we-22" style="rounded=0;orthogonalLoop=1;jettySize=auto;html=1;endArrow=none;endFill=0;" edge="1" parent="1" source="ZhVG3TgMVwb6304Ly7we-13" target="ZhVG3TgMVwb6304Ly7we-20">
          <mxGeometry relative="1" as="geometry" />
        </mxCell>
        <mxCell id="ZhVG3TgMVwb6304Ly7we-28" style="rounded=0;orthogonalLoop=1;jettySize=auto;html=1;endArrow=none;endFill=0;entryX=0;entryY=0.5;entryDx=0;entryDy=0;" edge="1" parent="1" source="ZhVG3TgMVwb6304Ly7we-4" target="ZhVG3TgMVwb6304Ly7we-19">
          <mxGeometry relative="1" as="geometry">
            <mxPoint x="110" y="172" as="sourcePoint" />
            <mxPoint x="327" y="248" as="targetPoint" />
          </mxGeometry>
        </mxCell>
        <mxCell id="ZhVG3TgMVwb6304Ly7we-29" style="rounded=0;orthogonalLoop=1;jettySize=auto;html=1;endArrow=none;endFill=0;entryX=0;entryY=0.5;entryDx=0;entryDy=0;" edge="1" parent="1" source="ZhVG3TgMVwb6304Ly7we-4" target="ZhVG3TgMVwb6304Ly7we-13">
          <mxGeometry relative="1" as="geometry">
            <mxPoint x="270" y="180" as="sourcePoint" />
            <mxPoint x="430" y="180" as="targetPoint" />
          </mxGeometry>
        </mxCell>
        <mxCell id="ZhVG3TgMVwb6304Ly7we-31" style="rounded=0;orthogonalLoop=1;jettySize=auto;html=1;endArrow=none;endFill=0;exitX=1;exitY=0.263;exitDx=0;exitDy=0;exitPerimeter=0;" edge="1" parent="1" source="ZhVG3TgMVwb6304Ly7we-30" target="ZhVG3TgMVwb6304Ly7we-20">
          <mxGeometry relative="1" as="geometry">
            <mxPoint x="550" y="230" as="sourcePoint" />
            <mxPoint x="771" y="200" as="targetPoint" />
          </mxGeometry>
        </mxCell>
        <mxCell id="ZhVG3TgMVwb6304Ly7we-32" style="rounded=0;orthogonalLoop=1;jettySize=auto;html=1;endArrow=none;endFill=0;exitX=0.017;exitY=0.4;exitDx=0;exitDy=0;exitPerimeter=0;" edge="1" parent="1" source="ZhVG3TgMVwb6304Ly7we-30" target="ZhVG3TgMVwb6304Ly7we-4">
          <mxGeometry relative="1" as="geometry">
            <mxPoint x="615" y="271" as="sourcePoint" />
            <mxPoint x="750" y="162" as="targetPoint" />
          </mxGeometry>
        </mxCell>
        <mxCell id="ZhVG3TgMVwb6304Ly7we-33" style="rounded=0;orthogonalLoop=1;jettySize=auto;html=1;endArrow=none;endFill=0;entryX=1;entryY=0.5;entryDx=0;entryDy=0;" edge="1" parent="1" source="ZhVG3TgMVwb6304Ly7we-20" target="ZhVG3TgMVwb6304Ly7we-19">
          <mxGeometry relative="1" as="geometry">
            <mxPoint x="120" y="160" as="sourcePoint" />
            <mxPoint x="428" y="372" as="targetPoint" />
          </mxGeometry>
        </mxCell>
      </root>
    </mxGraphModel>
  </diagram>
</mxfile>
